<svg xmlns="http://www.w3.org/2000/svg" xmlns:xlink="http://www.w3.org/1999/xlink" width="2000" zoomAndPan="magnify" viewBox="0 0 1500 1499.999933" height="2000" preserveAspectRatio="xMidYMid meet" version="1.0"><defs><g/><clipPath id="fa50998533"><rect x="0" width="268" y="0" height="514"/></clipPath><clipPath id="fd7a402717"><rect x="0" width="340" y="0" height="514"/></clipPath><clipPath id="8dd34a832c"><path d="M 653.398438 704.398438 L 677.816406 704.398438 L 677.816406 772.199219 L 653.398438 772.199219 Z M 653.398438 704.398438 " clip-rule="nonzero"/></clipPath><clipPath id="795eccb5a7"><path d="M 0.398438 0.398438 L 24.816406 0.398438 L 24.816406 68.199219 L 0.398438 68.199219 Z M 0.398438 0.398438 " clip-rule="nonzero"/></clipPath><clipPath id="805e1878fd"><rect x="0" width="25" y="0" height="69"/></clipPath><clipPath id="c93ecbb317"><rect x="0" width="142" y="0" height="75"/></clipPath><clipPath id="b009940e88"><path d="M 661.792969 742.292969 L 729.59375 742.292969 L 729.59375 766.707031 L 661.792969 766.707031 Z M 661.792969 742.292969 " clip-rule="nonzero"/></clipPath><clipPath id="1267b05789"><path d="M 0.792969 0.292969 L 68.59375 0.292969 L 68.59375 24.707031 L 0.792969 24.707031 Z M 0.792969 0.292969 " clip-rule="nonzero"/></clipPath><clipPath id="d6365ff3e7"><rect x="0" width="69" y="0" height="25"/></clipPath></defs><g transform="matrix(1, 0, 0, 1, 653, 515)"><g clip-path="url(#fa50998533)"><g fill="#000000" fill-opacity="1"><g transform="translate(0.399977, 408.699929)"><g><path d="M 257.109375 -289.859375 L 143.625 -289.859375 L 143.625 0 L 121.359375 0 L 121.359375 -289.859375 L 7.859375 -289.859375 L 7.859375 -309.9375 L 257.109375 -309.9375 Z M 257.109375 -289.859375 "/></g></g></g></g></g><g transform="matrix(1, 0, 0, 1, 562, 447)"><g clip-path="url(#fd7a402717)"><g fill="#ffffff" fill-opacity="1"><g transform="translate(-10.042612, 427.512766)"><g><path d="M 62.859375 -268.46875 L 62.859375 0 L 40.59375 0 L 40.59375 -309.9375 L 58.9375 -309.9375 L 275.015625 -37.109375 L 275.015625 -309.9375 L 297.28125 -309.9375 L 297.28125 0 L 275.453125 0 Z M 62.859375 -268.46875 "/></g></g></g><g fill="#000000" fill-opacity="1"><g transform="translate(0.274692, 408.899877)"><g><path d="M 62.859375 -268.46875 L 62.859375 0 L 40.59375 0 L 40.59375 -309.9375 L 58.9375 -309.9375 L 275.015625 -37.109375 L 275.015625 -309.9375 L 297.28125 -309.9375 L 297.28125 0 L 275.453125 0 Z M 62.859375 -268.46875 "/></g></g></g></g></g><g clip-path="url(#8dd34a832c)"><g transform="matrix(1, 0, 0, 1, 653, 704)"><g clip-path="url(#805e1878fd)"><g clip-path="url(#795eccb5a7)"><path fill="#ffffff" d="M 0.398438 0.398438 L 24.816406 0.398438 L 24.816406 68.214844 L 0.398438 68.214844 Z M 0.398438 0.398438 " fill-opacity="1" fill-rule="nonzero"/></g></g></g></g><g transform="matrix(1, 0, 0, 1, 804, 863)"><g clip-path="url(#c93ecbb317)"><g fill="#ffffff" fill-opacity="1"><g transform="translate(-0.149866, 61.73783)"><g><path d="M 5.421875 0 L 5.421875 -43.25 L 20.09375 -43.25 C 24.6875 -43.25 28.515625 -42.28125 31.578125 -40.34375 C 34.640625 -38.414062 36.941406 -35.816406 38.484375 -32.546875 C 40.035156 -29.285156 40.8125 -25.664062 40.8125 -21.6875 C 40.8125 -17.300781 39.96875 -13.484375 38.28125 -10.234375 C 36.59375 -6.984375 34.195312 -4.460938 31.09375 -2.671875 C 27.988281 -0.890625 24.320312 0 20.09375 0 Z M 36.546875 -21.6875 C 36.546875 -25.132812 35.90625 -28.195312 34.625 -30.875 C 33.34375 -33.5625 31.484375 -35.664062 29.046875 -37.1875 C 26.609375 -38.707031 23.625 -39.46875 20.09375 -39.46875 L 9.6875 -39.46875 L 9.6875 -3.78125 L 20.09375 -3.78125 C 23.664062 -3.78125 26.671875 -4.570312 29.109375 -6.15625 C 31.546875 -7.738281 33.394531 -9.878906 34.65625 -12.578125 C 35.914062 -15.273438 36.546875 -18.3125 36.546875 -21.6875 Z M 36.546875 -21.6875 "/></g></g></g><g fill="#ffffff" fill-opacity="1"><g transform="translate(48.202191, 61.73783)"><g><path d="M 34.46875 -3.78125 L 34.46875 0 L 5.421875 0 L 5.421875 -43.25 L 33.921875 -43.25 L 33.921875 -39.46875 L 9.6875 -39.46875 L 9.6875 -23.875 L 30.8125 -23.875 L 30.8125 -20.28125 L 9.6875 -20.28125 L 9.6875 -3.78125 Z M 34.46875 -3.78125 "/></g></g></g><g fill="#ffffff" fill-opacity="1"><g transform="translate(90.09966, 61.73783)"><g><path d="M 5.234375 -43.25 L 20.703125 -5.296875 L 36.125 -43.25 L 40.5625 -43.25 L 22.65625 0 L 18.765625 0 L 0.796875 -43.25 Z M 5.234375 -43.25 "/></g></g></g><g fill="#000000" fill-opacity="1"><g transform="translate(1.290374, 59.139549)"><g><path d="M 5.421875 0 L 5.421875 -43.25 L 20.09375 -43.25 C 24.6875 -43.25 28.515625 -42.28125 31.578125 -40.34375 C 34.640625 -38.414062 36.941406 -35.816406 38.484375 -32.546875 C 40.035156 -29.285156 40.8125 -25.664062 40.8125 -21.6875 C 40.8125 -17.300781 39.96875 -13.484375 38.28125 -10.234375 C 36.59375 -6.984375 34.195312 -4.460938 31.09375 -2.671875 C 27.988281 -0.890625 24.320312 0 20.09375 0 Z M 36.546875 -21.6875 C 36.546875 -25.132812 35.90625 -28.195312 34.625 -30.875 C 33.34375 -33.5625 31.484375 -35.664062 29.046875 -37.1875 C 26.609375 -38.707031 23.625 -39.46875 20.09375 -39.46875 L 9.6875 -39.46875 L 9.6875 -3.78125 L 20.09375 -3.78125 C 23.664062 -3.78125 26.671875 -4.570312 29.109375 -6.15625 C 31.546875 -7.738281 33.394531 -9.878906 34.65625 -12.578125 C 35.914062 -15.273438 36.546875 -18.3125 36.546875 -21.6875 Z M 36.546875 -21.6875 "/></g></g></g><g fill="#000000" fill-opacity="1"><g transform="translate(49.642431, 59.139549)"><g><path d="M 34.46875 -3.78125 L 34.46875 0 L 5.421875 0 L 5.421875 -43.25 L 33.921875 -43.25 L 33.921875 -39.46875 L 9.6875 -39.46875 L 9.6875 -23.875 L 30.8125 -23.875 L 30.8125 -20.28125 L 9.6875 -20.28125 L 9.6875 -3.78125 Z M 34.46875 -3.78125 "/></g></g></g><g fill="#000000" fill-opacity="1"><g transform="translate(91.5399, 59.139549)"><g><path d="M 5.234375 -43.25 L 20.703125 -5.296875 L 36.125 -43.25 L 40.5625 -43.25 L 22.65625 0 L 18.765625 0 L 0.796875 -43.25 Z M 5.234375 -43.25 "/></g></g></g></g></g><g clip-path="url(#b009940e88)"><g transform="matrix(1, 0, 0, 1, 661, 742)"><g clip-path="url(#d6365ff3e7)"><g clip-path="url(#1267b05789)"><path fill="#ffffff" d="M 68.59375 0.292969 L 68.59375 24.707031 L 0.78125 24.707031 L 0.78125 0.292969 Z M 68.59375 0.292969 " fill-opacity="1" fill-rule="nonzero"/></g></g></g></g></svg>